<svg xmlns="http://www.w3.org/2000/svg" xmlns:xlink="http://www.w3.org/1999/xlink" width="1080" zoomAndPan="magnify" viewBox="0 0 810 149.999998" height="200" preserveAspectRatio="xMidYMid meet" version="1.0"><defs><g/><clipPath id="cd2ed9f3d3"><path d="M 0 10.96875 L 128.25 10.96875 L 128.25 139.21875 L 0 139.21875 Z M 0 10.96875 " clip-rule="nonzero"/></clipPath></defs><g clip-path="url(#cd2ed9f3d3)"><path fill="#2563EB" d="M 32.015625 10.96875 C 49.695312 10.96875 64.03125 25.300781 64.03125 42.984375 L 64.03125 10.96875 L 96.046875 10.96875 C 113.726562 10.96875 128.0625 25.300781 128.0625 42.984375 C 128.0625 60.664062 113.726562 75 96.046875 75 C 113.726562 75 128.0625 89.332031 128.0625 107.015625 C 128.0625 115.792969 124.527344 123.75 118.804688 129.53125 L 118.578125 129.757812 C 112.792969 135.492188 104.832031 139.03125 96.046875 139.03125 C 87.320312 139.03125 79.40625 135.539062 73.632812 129.875 C 73.558594 129.800781 73.484375 129.726562 73.410156 129.652344 C 73.339844 129.582031 73.269531 129.511719 73.199219 129.441406 C 67.527344 123.667969 64.03125 115.75 64.03125 107.015625 C 64.03125 124.695312 49.695312 139.03125 32.015625 139.03125 C 14.332031 139.03125 0 124.695312 0 107.015625 L 0 75 L 32.015625 75 C 14.332031 75 0 60.664062 0 42.984375 C 0 25.300781 14.332031 10.96875 32.015625 10.96875 Z M 57.628906 42.984375 C 57.628906 57.128906 46.160156 68.597656 32.015625 68.597656 L 32.015625 17.371094 C 46.160156 17.371094 57.628906 28.839844 57.628906 42.984375 Z M 121.660156 107.015625 C 121.660156 92.871094 110.191406 81.402344 96.046875 81.402344 C 81.902344 81.402344 70.433594 92.871094 70.433594 107.015625 Z M 6.402344 81.402344 L 6.402344 107.015625 C 6.402344 121.160156 17.871094 132.628906 32.015625 132.628906 C 46.160156 132.628906 57.628906 121.160156 57.628906 107.015625 L 57.628906 81.402344 Z M 70.433594 68.597656 L 70.433594 17.371094 L 96.046875 17.371094 C 110.191406 17.371094 121.660156 28.839844 121.660156 42.984375 C 121.660156 57.128906 110.191406 68.597656 96.046875 68.597656 Z M 70.433594 68.597656 " fill-opacity="1" fill-rule="evenodd"/></g><path stroke-linecap="butt" transform="matrix(0.725529, 0, 0, 0.725529, 154.195954, 0.270525)" fill="none" stroke-linejoin="miter" d="M 74.346819 136.574645 L 49.87114 136.574645 L 49.87114 144.386834 C 49.87114 149.399341 48.541291 153.098151 45.876209 155.472497 C 43.238048 157.825306 38.677797 158.999019 32.195457 158.999019 C 29.438847 158.999019 27.172181 158.605987 25.39546 157.814538 C 23.640275 157.017706 22.095066 155.698625 20.749065 153.851912 C 19.429984 151.978278 18.444712 149.259357 17.798631 145.678994 C 17.174087 142.08248 16.684143 137.748357 16.323415 132.687394 C 15.989606 127.621047 15.817318 121.203315 15.817318 113.428814 C 15.817318 106.661122 16.528007 100.45875 17.944 94.816314 C 19.381528 89.157726 21.303618 84.355195 23.704883 80.419489 C 26.127685 76.483782 28.862758 73.016484 31.910104 70.017594 C 34.95745 67.018704 38.268612 64.692815 41.843591 63.034542 C 45.445489 61.354733 48.934323 60.094876 52.320861 59.254972 C 55.702016 58.415067 59.120858 57.995115 62.577388 57.995115 C 66.706918 57.995115 70.771841 58.560435 74.782924 59.685692 C 78.815542 60.816333 82.891233 62.759958 87.020763 65.516567 C 91.17183 68.278561 94.795264 71.697403 97.891066 75.778478 C 100.986868 79.854169 103.506582 85.135876 105.450207 91.612832 C 107.415368 98.095172 108.400641 105.363577 108.400641 113.428814 C 108.400641 126.409646 107.932233 136.020092 106.995416 142.260152 C 106.085519 148.500212 104.51339 152.855871 102.284413 155.327128 C 100.076972 157.77685 96.668898 158.999019 92.060191 158.999019 C 85.556314 158.999019 80.974528 157.825306 78.309446 155.472497 C 75.671284 153.098151 74.346819 149.399341 74.346819 144.386834 Z M 62.254348 82.040074 C 58.033289 82.040074 54.910567 83.278395 52.89695 85.749652 C 50.877948 88.19399 49.87114 92.565801 49.87114 98.848933 L 49.87114 116.239264 L 74.346819 116.239264 L 74.346819 98.56358 C 74.346819 94.43405 73.856875 91.122888 72.871602 88.630094 C 71.891714 86.110381 70.534945 84.382115 68.80668 83.445299 C 67.099951 82.508482 64.919429 82.040074 62.254348 82.040074 Z M 157.67504 58.140483 C 173.008682 58.140483 185.321898 62.566134 194.60392 71.422819 C 203.891326 80.274121 208.537721 92.468889 208.537721 107.99097 C 208.537721 113.008862 208.069312 117.881385 207.132496 122.60854 C 206.195679 127.308775 204.65047 131.906714 202.491485 136.396972 C 200.332499 140.860311 197.618962 144.73141 194.356256 148.021036 C 191.115085 151.310662 186.985555 153.959592 181.973048 155.978593 C 176.982076 157.99221 171.328873 158.999019 165.018821 158.999019 L 135.966738 158.999019 C 129.995879 158.999019 125.699444 157.475346 123.082818 154.428 C 120.493113 151.380654 119.195568 145.872818 119.195568 137.904493 L 119.195568 75.703102 C 119.195568 63.992895 124.784163 58.140483 135.966738 58.140483 Z M 153.249389 138.94899 C 155.790639 138.94899 158.025 138.685174 159.941706 138.157542 C 161.863795 137.608373 163.67282 136.623101 165.379549 135.207108 C 167.107814 133.764195 168.507655 131.869026 169.58984 129.5216 C 170.66664 127.141871 171.533465 124.121445 172.179545 120.449554 C 172.83101 116.750744 173.15405 112.395085 173.15405 107.382578 C 173.15405 101.788599 172.658722 97.050676 171.678833 93.163425 C 170.693561 89.276175 169.2668 86.325741 167.393166 84.306739 C 165.519533 82.293122 163.48438 80.877129 161.271555 80.058761 C 159.064113 79.218856 156.388263 78.750448 153.249389 78.65892 Z M 252.907293 136.897685 C 252.907293 151.633702 247.157177 158.999019 235.66233 158.999019 C 229.858374 158.999019 225.599627 157.45381 222.88609 154.358008 C 220.199472 151.262206 218.853471 145.775906 218.853471 137.904493 L 218.853471 75.703102 C 218.853471 69.996058 220.404064 65.6404 223.499866 62.636126 C 226.590284 59.637236 230.649823 58.140483 235.66233 58.140483 L 266.620349 58.140483 C 278.712821 58.140483 288.495555 60.972469 295.957784 66.63644 C 303.420013 72.273492 307.151127 79.52036 307.151127 88.377046 C 307.151127 95.069362 305.745902 100.313382 302.940836 104.10372 C 300.157307 107.872522 295.667048 110.645284 289.475444 112.422005 C 294.181063 112.707357 298.54749 114.990175 302.580108 119.25969 C 306.612727 123.529204 308.626344 128.870136 308.626344 135.2771 C 308.626344 141.75944 308.017952 146.750411 306.790399 150.255397 C 305.56823 153.733463 303.818429 156.059353 301.535612 157.23845 C 299.279714 158.412162 296.087 158.999019 291.962853 158.999019 C 286.180434 158.999019 281.932455 157.798386 279.218917 155.402505 C 276.50538 152.974319 275.153995 149.302429 275.153995 144.386834 C 275.153995 138.313678 274.561754 133.634979 273.388042 130.345353 C 272.214329 127.034191 270.690656 124.885973 268.817023 123.906085 C 266.94339 122.920812 264.342916 122.425484 261.004834 122.425484 L 252.907293 122.570852 Z M 275.477035 87.332549 C 275.477035 82.62693 273.74877 79.391144 270.29224 77.614423 C 266.86263 75.837702 261.064058 74.949341 252.907293 74.949341 L 252.907293 100.469518 C 260.563346 100.469518 266.238085 99.511165 269.931511 97.589076 C 273.630322 95.672371 275.477035 92.253528 275.477035 87.332549 Z M 355.08491 136.897685 C 355.08491 144.553738 353.658149 150.158485 350.799243 153.706543 C 347.945721 157.23845 343.62775 158.999019 337.845331 158.999019 C 332.132903 158.999019 327.917228 157.475346 325.209075 154.428 C 322.522457 151.380654 321.176456 145.921275 321.176456 138.049862 L 321.176456 75.703102 C 321.176456 63.895982 326.732748 57.995115 337.845331 57.995115 C 343.530838 57.995115 347.827273 59.077299 350.729251 61.236285 C 353.631229 63.39527 355.08491 67.772465 355.08491 74.373253 Z M 466.23766 136.897685 C 466.23766 142.491664 465.553892 146.938851 464.186355 150.255397 C 462.818818 153.539639 460.923649 155.822457 458.495463 157.093082 C 456.099582 158.363706 452.928404 158.999019 448.992697 158.999019 C 443.188741 158.999019 438.978451 157.45381 436.361825 154.358008 C 433.766735 151.262206 432.426119 145.775906 432.329207 137.904493 L 432.03847 83.515291 L 419.515278 83.515291 C 413.323675 83.515291 408.67728 82.530018 405.581478 80.564857 C 402.485676 78.594312 400.940467 75.105478 400.940467 70.087586 C 400.940467 67.04024 401.554243 64.644359 402.776412 62.889174 C 403.998581 61.112453 405.834526 59.852596 408.284247 59.109603 C 410.755505 58.366611 414.055899 57.995115 418.180046 57.995115 L 481.28595 57.995115 C 486.777633 57.995115 490.751028 58.980387 493.200749 60.945549 C 495.672007 62.916094 496.904944 66.308016 496.904944 71.132083 C 496.904944 74.373253 496.183487 76.903735 494.745958 78.728912 C 493.329965 80.554089 491.445564 81.813946 489.092755 82.508482 C 486.745329 83.181483 483.692599 83.515291 479.950717 83.515291 L 466.23766 83.515291 Z M 561.922169 136.574645 L 537.446489 136.574645 L 537.446489 144.386834 C 537.446489 149.399341 536.11664 153.098151 533.451559 155.472497 C 530.808013 157.825306 526.253146 158.999019 519.770806 158.999019 C 517.014196 158.999019 514.742147 158.605987 512.97081 157.814538 C 511.215625 157.017706 509.670416 155.698625 508.324415 153.851912 C 507.005334 151.978278 506.020061 149.259357 505.373981 145.678994 C 504.749437 142.08248 504.259492 137.748357 503.898764 132.687394 C 503.559572 127.621047 503.392668 121.203315 503.392668 113.428814 C 503.392668 106.661122 504.103356 100.45875 505.519349 94.816314 C 506.956878 89.157726 508.878967 84.355195 511.274849 80.419489 C 513.703034 76.483782 516.438108 73.016484 519.485454 70.017594 C 522.5328 67.018704 525.843962 64.692815 529.41894 63.034542 C 533.020838 61.354733 536.509673 60.094876 539.896211 59.254972 C 543.277365 58.415067 546.696207 57.995115 550.152737 57.995115 C 554.282268 57.995115 558.347191 58.560435 562.352889 59.685692 C 566.385508 60.816333 570.466582 62.759958 574.596113 65.516567 C 578.74718 68.278561 582.370614 71.697403 585.466416 75.778478 C 588.562218 79.854169 591.081931 85.135876 593.025557 91.612832 C 594.990718 98.095172 595.97599 105.363577 595.97599 113.428814 C 595.97599 126.409646 595.507582 136.020092 594.570766 142.260152 C 593.660869 148.500212 592.08874 152.855871 589.854379 155.327128 C 587.646937 157.77685 584.238863 158.999019 579.63554 158.999019 C 573.131664 158.999019 568.544493 157.825306 565.884795 155.472497 C 563.24125 153.098151 561.922169 149.399341 561.922169 144.386834 Z M 549.829697 82.040074 C 545.603254 82.040074 542.485917 83.278395 540.466915 85.749652 C 538.453298 88.19399 537.446489 92.565801 537.446489 98.848933 L 537.446489 116.239264 L 561.922169 116.239264 L 561.922169 98.56358 C 561.922169 94.43405 561.432225 91.122888 560.446952 88.630094 C 559.461679 86.110381 558.10491 84.382115 556.382029 83.445299 C 554.6753 82.508482 552.494779 82.040074 549.829697 82.040074 Z M 647.010959 56.988306 C 658.69963 56.988306 668.670805 59.40034 676.924482 64.224407 C 685.178159 69.021554 689.30769 74.120205 689.30769 79.52036 C 689.30769 81.006345 688.984649 82.266202 688.333185 83.299931 C 687.714025 84.333659 686.933344 85.076652 685.996528 85.534292 C 685.059711 85.965012 684.052902 86.180373 682.970718 86.180373 C 681.220917 86.180373 678.566603 85.270476 675.018545 83.445299 C 671.492022 81.620122 667.556316 79.794945 663.211425 77.975151 C 658.893454 76.149974 654.92006 75.234694 651.296626 75.234694 C 645.487286 75.234694 642.585308 77.598271 642.585308 82.33081 C 642.585308 83.816795 643.053716 85.22202 643.990533 86.541101 C 644.921966 87.860182 646.424102 89.238487 648.486176 90.681399 C 650.553633 92.097392 652.56725 93.341097 654.537796 94.423282 C 656.502957 95.505467 659.200343 96.953763 662.635337 98.778941 C 666.064947 100.604118 668.972309 102.197783 671.346654 103.56532 C 678.905795 107.88329 684.209038 112.012821 687.256384 115.948528 C 690.30373 119.884234 691.827403 124.406797 691.827403 129.5216 C 691.827403 149.867749 678.114347 160.043515 650.682849 160.043515 C 645.282694 160.043515 640.054826 159.505115 634.988479 158.42293 C 629.927516 157.34613 625.496481 155.913985 621.706143 154.142648 C 617.93734 152.365927 614.604642 150.395381 611.702664 148.236396 C 608.795303 146.077411 606.598629 143.869969 605.112644 141.614072 C 603.648195 139.336638 602.915971 137.220725 602.915971 135.2771 C 602.915971 133.096578 603.626659 131.244481 605.042652 129.73696 C 606.480181 128.197135 608.579942 127.432607 611.341936 127.432607 C 613.40401 127.432607 618.357293 128.74092 626.20717 131.357545 C 634.078583 133.968787 640.426323 135.2771 645.25039 135.2771 C 649.665273 135.2771 651.872714 133.753427 651.872714 130.706081 C 651.872714 129.81772 651.689658 129.004736 651.334314 128.261743 C 650.995121 127.513367 650.408265 126.781142 649.56836 126.06507 C 648.749992 125.322077 647.829327 124.638309 646.795599 124.013765 C 645.76187 123.3623 644.335109 122.549316 642.515316 121.564043 C 640.690139 120.57877 638.864962 119.598882 637.039785 118.613609 C 635.241527 117.628337 632.867182 116.357712 629.916748 114.796351 C 626.96093 113.213454 624.107408 111.630557 621.345415 110.04766 C 617.72198 107.980202 614.604642 105.428185 611.988017 102.375455 C 609.371391 99.328109 607.476222 96.307683 606.302509 93.308793 C 605.123412 90.309903 604.536556 87.537141 604.536556 84.990508 C 604.536556 76.736831 608.219214 70.006826 615.589915 64.800495 C 622.976768 59.58878 633.454038 56.988306 647.010959 56.988306 Z M 771.742166 110.47838 C 776.760057 111.076004 781.331076 113.622638 785.455223 118.107513 C 789.584753 122.570852 791.646827 128.294047 791.646827 135.2771 C 791.646827 142.044792 791.156882 147.084219 790.17161 150.395381 C 789.186337 153.685007 787.506528 155.940905 785.132183 157.163074 C 782.779373 158.390626 779.204395 158.999019 774.407248 158.999019 C 770.568453 158.999019 767.386507 158.460618 764.866794 157.378434 C 762.374 156.301633 760.538055 154.702584 759.358958 152.592055 C 758.185245 150.481525 757.598389 147.746452 757.598389 144.386834 C 757.598389 140.063479 757.415333 136.466965 757.054605 133.586523 C 756.720796 130.684545 756.273924 128.369423 755.724756 126.641158 C 755.197124 124.912893 754.394907 123.615348 753.312722 122.753908 C 752.230538 121.865547 751.175273 121.300227 750.146928 121.057947 C 749.1132 120.794131 747.707975 120.664914 745.931254 120.664914 L 738.124449 120.664914 L 738.124449 137.043053 C 738.124449 144.887546 736.600776 150.519213 733.55343 153.921904 C 730.5007 157.308442 726.026593 158.999019 720.125725 158.999019 C 714.434834 158.999019 710.235311 157.405354 707.527157 154.21264 C 704.81362 151.019926 703.456851 145.635922 703.456851 138.049862 L 703.456851 76.569927 C 703.456851 70.378323 704.609027 65.731928 706.913381 62.636126 C 709.23927 59.540324 713.008073 57.995115 718.214404 57.995115 C 721.26175 57.995115 723.797616 58.199707 725.811233 58.608891 C 727.82485 58.991155 729.795395 59.69646 731.717485 60.730188 C 733.63419 61.763917 735.050183 63.384502 735.960079 65.591944 C 736.896896 67.799385 737.365304 70.631371 737.365304 74.087901 C 737.365304 77.135247 737.343768 80.554089 737.295312 84.344427 C 737.246856 88.11323 737.219936 90.78908 737.219936 92.371977 C 737.219936 93.642601 737.54836 94.724786 738.194441 95.613147 C 738.840521 96.496123 739.825794 97.21758 741.144875 97.772132 C 742.463955 98.299764 744.11146 98.56358 746.076622 98.56358 C 750.303064 98.56358 753.118898 96.894539 754.534891 93.556457 C 755.977804 90.196839 756.693876 83.359155 756.693876 73.043404 C 756.693876 67.928601 758.066797 64.149031 760.801871 61.704693 C 763.558481 59.233436 767.989516 57.995115 774.084208 57.995115 C 780.679612 57.995115 785.110647 59.276508 787.366544 61.844677 C 789.622441 64.391311 790.747698 68.96233 790.747698 75.563118 C 790.747698 86.358045 788.852529 94.735554 785.06219 100.684878 C 781.293388 106.639586 776.851585 109.902292 771.742166 110.47838 Z M 845.018453 56.988306 C 856.707124 56.988306 866.678298 59.40034 874.931976 64.224407 C 883.185653 69.021554 887.315183 74.120205 887.315183 79.52036 C 887.315183 81.006345 886.992143 82.266202 886.346063 83.299931 C 885.721518 84.333659 884.940838 85.076652 884.004021 85.534292 C 883.067205 85.965012 882.060396 86.180373 880.978211 86.180373 C 879.22841 86.180373 876.574097 85.270476 873.026038 83.445299 C 869.499516 81.620122 865.56381 79.794945 861.218919 77.975151 C 856.900948 76.149974 852.927554 75.234694 849.304119 75.234694 C 843.49478 75.234694 840.592802 77.598271 840.592802 82.33081 C 840.592802 83.816795 841.06121 85.22202 841.998027 86.541101 C 842.934843 87.860182 844.431596 89.238487 846.493669 90.681399 C 848.561127 92.097392 850.574744 93.341097 852.545289 94.423282 C 854.510451 95.505467 857.21322 96.953763 860.64283 98.778941 C 864.072441 100.604118 866.979802 102.197783 869.354148 103.56532 C 876.913289 107.88329 882.216532 112.012821 885.263878 115.948528 C 888.311224 119.884234 889.834897 124.406797 889.834897 129.5216 C 889.834897 149.867749 876.12184 160.043515 848.690343 160.043515 C 843.290187 160.043515 838.06232 159.505115 832.995973 158.42293 C 827.93501 157.34613 823.503975 155.913985 819.713636 154.142648 C 815.944834 152.365927 812.612136 150.395381 809.710158 148.236396 C 806.802796 146.077411 804.606123 143.869969 803.120138 141.614072 C 801.655689 139.336638 800.923465 137.220725 800.923465 135.2771 C 800.923465 133.096578 801.634153 131.244481 803.050146 129.73696 C 804.487675 128.197135 806.587436 127.432607 809.34943 127.432607 C 811.411503 127.432607 816.364786 128.74092 824.214663 131.357545 C 832.086076 133.968787 838.433816 135.2771 843.257883 135.2771 C 847.672766 135.2771 849.880208 133.753427 849.880208 130.706081 C 849.880208 129.81772 849.697152 129.004736 849.341807 128.261743 C 849.002615 127.513367 848.415759 126.781142 847.575854 126.06507 C 846.757486 125.322077 845.836821 124.638309 844.803092 124.013765 C 843.774748 123.3623 842.342603 122.549316 840.52281 121.564043 C 838.697633 120.57877 836.872455 119.598882 835.047278 118.613609 C 833.249021 117.628337 830.874676 116.357712 827.924242 114.796351 C 824.968424 113.213454 822.114902 111.630557 819.352908 110.04766 C 815.729474 107.980202 812.612136 105.428185 809.99551 102.375455 C 807.378885 99.328109 805.483715 96.307683 804.310003 93.308793 C 803.130906 90.309903 802.54405 87.537141 802.54405 84.990508 C 802.54405 76.736831 806.226708 70.006826 813.597409 64.800495 C 820.984261 59.58878 831.461532 56.988306 845.018453 56.988306 Z M 845.018453 56.988306 " stroke="#2563EB" stroke-width="38.705101" stroke-opacity="1" stroke-miterlimit="4"/><g fill="#ffffff" fill-opacity="1"><g transform="translate(161.077142, 115.629618)"><g><path d="M 47.0625 -16.265625 L 29.3125 -16.265625 L 29.3125 -10.59375 C 29.3125 -6.957031 28.347656 -4.28125 26.421875 -2.5625 C 24.492188 -0.851562 21.175781 0 16.46875 0 C 14.476562 0 12.835938 -0.285156 11.546875 -0.859375 C 10.265625 -1.429688 9.140625 -2.394531 8.171875 -3.75 C 7.210938 -5.101562 6.5 -7.078125 6.03125 -9.671875 C 5.570312 -12.273438 5.21875 -15.414062 4.96875 -19.09375 C 4.71875 -22.769531 4.59375 -27.421875 4.59375 -33.046875 C 4.59375 -37.972656 5.109375 -42.484375 6.140625 -46.578125 C 7.179688 -50.679688 8.570312 -54.160156 10.3125 -57.015625 C 12.0625 -59.867188 14.039062 -62.378906 16.25 -64.546875 C 18.46875 -66.722656 20.878906 -68.414062 23.484375 -69.625 C 26.085938 -70.84375 28.617188 -71.753906 31.078125 -72.359375 C 33.535156 -72.972656 36.015625 -73.28125 38.515625 -73.28125 C 41.503906 -73.28125 44.457031 -72.867188 47.375 -72.046875 C 50.300781 -71.222656 53.265625 -69.8125 56.265625 -67.8125 C 59.265625 -65.820312 61.882812 -63.34375 64.125 -60.375 C 66.375 -57.414062 68.210938 -53.582031 69.640625 -48.875 C 71.066406 -44.175781 71.78125 -38.898438 71.78125 -33.046875 C 71.78125 -23.640625 71.441406 -16.671875 70.765625 -12.140625 C 70.085938 -7.609375 68.945312 -4.453125 67.34375 -2.671875 C 65.738281 -0.890625 63.257812 0 59.90625 0 C 55.195312 0 51.878906 -0.851562 49.953125 -2.5625 C 48.023438 -4.28125 47.0625 -6.957031 47.0625 -10.59375 Z M 38.296875 -55.84375 C 35.222656 -55.84375 32.957031 -54.945312 31.5 -53.15625 C 30.039062 -51.375 29.3125 -48.203125 29.3125 -43.640625 L 29.3125 -31.015625 L 47.0625 -31.015625 L 47.0625 -43.859375 C 47.0625 -46.847656 46.703125 -49.253906 45.984375 -51.078125 C 45.273438 -52.898438 44.296875 -54.148438 43.046875 -54.828125 C 41.804688 -55.503906 40.222656 -55.84375 38.296875 -55.84375 Z M 38.296875 -55.84375 "/></g></g></g><g fill="#ffffff" fill-opacity="1"><g transform="translate(233.388739, 115.629618)"><g><path d="M 35.1875 -73.171875 C 46.3125 -73.171875 55.242188 -69.957031 61.984375 -63.53125 C 68.722656 -57.113281 72.09375 -48.273438 72.09375 -37.015625 C 72.09375 -33.378906 71.753906 -29.847656 71.078125 -26.421875 C 70.398438 -22.992188 69.273438 -19.65625 67.703125 -16.40625 C 66.140625 -13.164062 64.179688 -10.351562 61.828125 -7.96875 C 59.472656 -5.582031 56.476562 -3.65625 52.84375 -2.1875 C 49.207031 -0.726562 45.109375 0 40.546875 0 L 19.46875 0 C 15.113281 0 11.992188 -1.101562 10.109375 -3.3125 C 8.222656 -5.519531 7.28125 -9.515625 7.28125 -15.296875 L 7.28125 -60.4375 C 7.28125 -68.925781 11.34375 -73.171875 19.46875 -73.171875 Z M 31.984375 -14.546875 C 33.835938 -14.546875 35.457031 -14.738281 36.84375 -15.125 C 38.238281 -15.519531 39.5625 -16.234375 40.8125 -17.265625 C 42.0625 -18.304688 43.078125 -19.679688 43.859375 -21.390625 C 44.640625 -23.109375 45.257812 -25.300781 45.71875 -27.96875 C 46.1875 -30.644531 46.421875 -33.800781 46.421875 -37.4375 C 46.421875 -41.5 46.0625 -44.9375 45.34375 -47.75 C 44.632812 -50.570312 43.601562 -52.710938 42.25 -54.171875 C 40.894531 -55.640625 39.414062 -56.675781 37.8125 -57.28125 C 36.207031 -57.882812 34.265625 -58.222656 31.984375 -58.296875 Z M 31.984375 -14.546875 "/></g></g></g><g fill="#ffffff" fill-opacity="1"><g transform="translate(306.556101, 115.629618)"><g><path d="M 31.125 -16.046875 C 31.125 -5.347656 26.953125 0 18.609375 0 C 14.398438 0 11.316406 -1.117188 9.359375 -3.359375 C 7.398438 -5.609375 6.421875 -9.585938 6.421875 -15.296875 L 6.421875 -60.4375 C 6.421875 -64.570312 7.539062 -67.726562 9.78125 -69.90625 C 12.03125 -72.082031 14.972656 -73.171875 18.609375 -73.171875 L 41.078125 -73.171875 C 49.847656 -73.171875 56.941406 -71.117188 62.359375 -67.015625 C 67.785156 -62.910156 70.5 -57.648438 70.5 -51.234375 C 70.5 -46.390625 69.476562 -42.59375 67.4375 -39.84375 C 65.40625 -37.101562 62.144531 -35.085938 57.65625 -33.796875 C 61.082031 -33.585938 64.253906 -31.929688 67.171875 -28.828125 C 70.097656 -25.722656 71.5625 -21.851562 71.5625 -17.21875 C 71.5625 -12.507812 71.113281 -8.890625 70.21875 -6.359375 C 69.332031 -3.828125 68.066406 -2.132812 66.421875 -1.28125 C 64.785156 -0.425781 62.46875 0 59.46875 0 C 55.257812 0 52.175781 -0.867188 50.21875 -2.609375 C 48.257812 -4.359375 47.28125 -7.019531 47.28125 -10.59375 C 47.28125 -15.007812 46.851562 -18.410156 46 -20.796875 C 45.144531 -23.191406 44.035156 -24.742188 42.671875 -25.453125 C 41.316406 -26.171875 39.429688 -26.53125 37.015625 -26.53125 L 31.125 -26.421875 Z M 47.5 -51.984375 C 47.5 -55.410156 46.25 -57.765625 43.75 -59.046875 C 41.25 -60.328125 37.039062 -60.96875 31.125 -60.96875 L 31.125 -42.46875 C 36.6875 -42.46875 40.804688 -43.160156 43.484375 -44.546875 C 46.160156 -45.941406 47.5 -48.421875 47.5 -51.984375 Z M 47.5 -51.984375 "/></g></g></g><g fill="#ffffff" fill-opacity="1"><g transform="translate(379.723468, 115.629618)"><g><path d="M 32.09375 -16.046875 C 32.09375 -10.484375 31.054688 -6.414062 28.984375 -3.84375 C 26.921875 -1.28125 23.785156 0 19.578125 0 C 15.441406 0 12.390625 -1.101562 10.421875 -3.3125 C 8.460938 -5.519531 7.484375 -9.476562 7.484375 -15.1875 L 7.484375 -60.4375 C 7.484375 -69 11.515625 -73.28125 19.578125 -73.28125 C 23.710938 -73.28125 26.832031 -72.492188 28.9375 -70.921875 C 31.039062 -69.347656 32.09375 -66.175781 32.09375 -61.40625 Z M 32.09375 -16.046875 "/></g></g></g><g fill="#ffffff" fill-opacity="1"><g transform="translate(414.809436, 115.629618)"><g/></g></g><g fill="#ffffff" fill-opacity="1"><g transform="translate(439.840205, 115.629618)"><g><path d="M 52.625 -16.046875 C 52.625 -11.984375 52.125 -8.753906 51.125 -6.359375 C 50.132812 -3.972656 48.765625 -2.316406 47.015625 -1.390625 C 45.265625 -0.460938 42.960938 0 40.109375 0 C 35.898438 0 32.847656 -1.117188 30.953125 -3.359375 C 29.066406 -5.609375 28.09375 -9.585938 28.03125 -15.296875 L 27.8125 -54.765625 L 18.71875 -54.765625 C 14.226562 -54.765625 10.859375 -55.476562 8.609375 -56.90625 C 6.359375 -58.332031 5.234375 -60.863281 5.234375 -64.5 C 5.234375 -66.707031 5.679688 -68.453125 6.578125 -69.734375 C 7.472656 -71.023438 8.8125 -71.9375 10.59375 -72.46875 C 12.375 -73.007812 14.757812 -73.28125 17.75 -73.28125 L 63.546875 -73.28125 C 67.535156 -73.28125 70.421875 -72.566406 72.203125 -71.140625 C 73.984375 -69.710938 74.875 -67.25 74.875 -63.75 C 74.875 -61.394531 74.359375 -59.554688 73.328125 -58.234375 C 72.296875 -56.921875 70.921875 -56.015625 69.203125 -55.515625 C 67.492188 -55.015625 65.285156 -54.765625 62.578125 -54.765625 L 52.625 -54.765625 Z M 52.625 -16.046875 "/></g></g></g><g fill="#ffffff" fill-opacity="1"><g transform="translate(514.826055, 115.629618)"><g><path d="M 47.0625 -16.265625 L 29.3125 -16.265625 L 29.3125 -10.59375 C 29.3125 -6.957031 28.347656 -4.28125 26.421875 -2.5625 C 24.492188 -0.851562 21.175781 0 16.46875 0 C 14.476562 0 12.835938 -0.285156 11.546875 -0.859375 C 10.265625 -1.429688 9.140625 -2.394531 8.171875 -3.75 C 7.210938 -5.101562 6.5 -7.078125 6.03125 -9.671875 C 5.570312 -12.273438 5.21875 -15.414062 4.96875 -19.09375 C 4.71875 -22.769531 4.59375 -27.421875 4.59375 -33.046875 C 4.59375 -37.972656 5.109375 -42.484375 6.140625 -46.578125 C 7.179688 -50.679688 8.570312 -54.160156 10.3125 -57.015625 C 12.0625 -59.867188 14.039062 -62.378906 16.25 -64.546875 C 18.46875 -66.722656 20.878906 -68.414062 23.484375 -69.625 C 26.085938 -70.84375 28.617188 -71.753906 31.078125 -72.359375 C 33.535156 -72.972656 36.015625 -73.28125 38.515625 -73.28125 C 41.503906 -73.28125 44.457031 -72.867188 47.375 -72.046875 C 50.300781 -71.222656 53.265625 -69.8125 56.265625 -67.8125 C 59.265625 -65.820312 61.882812 -63.34375 64.125 -60.375 C 66.375 -57.414062 68.210938 -53.582031 69.640625 -48.875 C 71.066406 -44.175781 71.78125 -38.898438 71.78125 -33.046875 C 71.78125 -23.640625 71.441406 -16.671875 70.765625 -12.140625 C 70.085938 -7.609375 68.945312 -4.453125 67.34375 -2.671875 C 65.738281 -0.890625 63.257812 0 59.90625 0 C 55.195312 0 51.878906 -0.851562 49.953125 -2.5625 C 48.023438 -4.28125 47.0625 -6.957031 47.0625 -10.59375 Z M 38.296875 -55.84375 C 35.222656 -55.84375 32.957031 -54.945312 31.5 -53.15625 C 30.039062 -51.375 29.3125 -48.203125 29.3125 -43.640625 L 29.3125 -31.015625 L 47.0625 -31.015625 L 47.0625 -43.859375 C 47.0625 -46.847656 46.703125 -49.253906 45.984375 -51.078125 C 45.273438 -52.898438 44.296875 -54.148438 43.046875 -54.828125 C 41.804688 -55.503906 40.222656 -55.84375 38.296875 -55.84375 Z M 38.296875 -55.84375 "/></g></g></g><g fill="#ffffff" fill-opacity="1"><g transform="translate(587.137647, 115.629618)"><g><path d="M 36.46875 -74.015625 C 44.957031 -74.015625 52.195312 -72.269531 58.1875 -68.78125 C 64.175781 -65.289062 67.171875 -61.582031 67.171875 -57.65625 C 67.171875 -56.582031 66.9375 -55.671875 66.46875 -54.921875 C 66.007812 -54.179688 65.441406 -53.648438 64.765625 -53.328125 C 64.085938 -53.003906 63.359375 -52.84375 62.578125 -52.84375 C 61.296875 -52.84375 59.367188 -53.5 56.796875 -54.8125 C 54.234375 -56.132812 51.378906 -57.457031 48.234375 -58.78125 C 45.097656 -60.101562 42.210938 -60.765625 39.578125 -60.765625 C 35.367188 -60.765625 33.265625 -59.050781 33.265625 -55.625 C 33.265625 -54.550781 33.601562 -53.53125 34.28125 -52.5625 C 34.957031 -51.601562 36.046875 -50.609375 37.546875 -49.578125 C 39.046875 -48.546875 40.503906 -47.632812 41.921875 -46.84375 C 43.347656 -46.0625 45.3125 -45.007812 47.8125 -43.6875 C 50.3125 -42.375 52.414062 -41.21875 54.125 -40.21875 C 59.613281 -37.082031 63.460938 -34.085938 65.671875 -31.234375 C 67.890625 -28.378906 69 -25.097656 69 -21.390625 C 69 -6.628906 59.046875 0.75 39.140625 0.75 C 35.222656 0.75 31.425781 0.359375 27.75 -0.421875 C 24.082031 -1.210938 20.875 -2.25 18.125 -3.53125 C 15.382812 -4.8125 12.960938 -6.234375 10.859375 -7.796875 C 8.753906 -9.367188 7.164062 -10.972656 6.09375 -12.609375 C 5.019531 -14.253906 4.484375 -15.789062 4.484375 -17.21875 C 4.484375 -18.789062 5 -20.128906 6.03125 -21.234375 C 7.070312 -22.335938 8.59375 -22.890625 10.59375 -22.890625 C 12.082031 -22.890625 15.679688 -21.941406 21.390625 -20.046875 C 27.097656 -18.160156 31.695312 -17.21875 35.1875 -17.21875 C 38.394531 -17.21875 40 -18.320312 40 -20.53125 C 40 -21.175781 39.875 -21.765625 39.625 -22.296875 C 39.375 -22.835938 38.945312 -23.375 38.34375 -23.90625 C 37.738281 -24.4375 37.0625 -24.929688 36.3125 -25.390625 C 35.5625 -25.859375 34.523438 -26.445312 33.203125 -27.15625 C 31.890625 -27.875 30.570312 -28.585938 29.25 -29.296875 C 27.9375 -30.015625 26.207031 -30.941406 24.0625 -32.078125 C 21.925781 -33.222656 19.859375 -34.367188 17.859375 -35.515625 C 15.222656 -37.015625 12.957031 -38.867188 11.0625 -41.078125 C 9.175781 -43.285156 7.804688 -45.476562 6.953125 -47.65625 C 6.097656 -49.832031 5.671875 -51.847656 5.671875 -53.703125 C 5.671875 -59.691406 8.34375 -64.570312 13.6875 -68.34375 C 19.039062 -72.125 26.632812 -74.015625 36.46875 -74.015625 Z M 36.46875 -74.015625 "/></g></g></g><g fill="#ffffff" fill-opacity="1"><g transform="translate(657.52378, 115.629618)"><g><path d="M 56.59375 -35.1875 C 60.226562 -34.757812 63.539062 -32.921875 66.53125 -29.671875 C 69.53125 -26.429688 71.03125 -22.28125 71.03125 -17.21875 C 71.03125 -12.300781 70.671875 -8.644531 69.953125 -6.25 C 69.242188 -3.863281 68.03125 -2.222656 66.3125 -1.328125 C 64.601562 -0.441406 62.003906 0 58.515625 0 C 55.734375 0 53.429688 -0.390625 51.609375 -1.171875 C 49.796875 -1.960938 48.457031 -3.125 47.59375 -4.65625 C 46.738281 -6.1875 46.3125 -8.164062 46.3125 -10.59375 C 46.3125 -13.726562 46.1875 -16.347656 45.9375 -18.453125 C 45.6875 -20.554688 45.363281 -22.234375 44.96875 -23.484375 C 44.582031 -24.734375 43.992188 -25.675781 43.203125 -26.3125 C 42.421875 -26.957031 41.65625 -27.367188 40.90625 -27.546875 C 40.164062 -27.722656 39.148438 -27.8125 37.859375 -27.8125 L 32.203125 -27.8125 L 32.203125 -15.9375 C 32.203125 -10.226562 31.09375 -6.144531 28.875 -3.6875 C 26.664062 -1.226562 23.421875 0 19.140625 0 C 15.003906 0 11.957031 -1.15625 10 -3.46875 C 8.039062 -5.789062 7.0625 -9.695312 7.0625 -15.1875 L 7.0625 -59.796875 C 7.0625 -64.285156 7.898438 -67.65625 9.578125 -69.90625 C 11.253906 -72.15625 13.976562 -73.28125 17.75 -73.28125 C 19.96875 -73.28125 21.804688 -73.132812 23.265625 -72.84375 C 24.722656 -72.5625 26.144531 -72.046875 27.53125 -71.296875 C 28.925781 -70.546875 29.960938 -69.367188 30.640625 -67.765625 C 31.316406 -66.160156 31.65625 -64.109375 31.65625 -61.609375 C 31.65625 -59.398438 31.640625 -56.921875 31.609375 -54.171875 C 31.578125 -51.429688 31.5625 -49.488281 31.5625 -48.34375 C 31.5625 -47.414062 31.789062 -46.628906 32.25 -45.984375 C 32.71875 -45.347656 33.429688 -44.832031 34.390625 -44.4375 C 35.347656 -44.050781 36.539062 -43.859375 37.96875 -43.859375 C 41.039062 -43.859375 43.09375 -45.066406 44.125 -47.484375 C 45.15625 -49.910156 45.671875 -54.867188 45.671875 -62.359375 C 45.671875 -66.066406 46.671875 -68.8125 48.671875 -70.59375 C 50.671875 -72.382812 53.878906 -73.28125 58.296875 -73.28125 C 63.078125 -73.28125 66.285156 -72.351562 67.921875 -70.5 C 69.566406 -68.644531 70.390625 -65.328125 70.390625 -60.546875 C 70.390625 -52.703125 69.015625 -46.617188 66.265625 -42.296875 C 63.523438 -37.984375 60.300781 -35.613281 56.59375 -35.1875 Z M 56.59375 -35.1875 "/></g></g></g><g fill="#ffffff" fill-opacity="1"><g transform="translate(730.798123, 115.629618)"><g><path d="M 36.46875 -74.015625 C 44.957031 -74.015625 52.195312 -72.269531 58.1875 -68.78125 C 64.175781 -65.289062 67.171875 -61.582031 67.171875 -57.65625 C 67.171875 -56.582031 66.9375 -55.671875 66.46875 -54.921875 C 66.007812 -54.179688 65.441406 -53.648438 64.765625 -53.328125 C 64.085938 -53.003906 63.359375 -52.84375 62.578125 -52.84375 C 61.296875 -52.84375 59.367188 -53.5 56.796875 -54.8125 C 54.234375 -56.132812 51.378906 -57.457031 48.234375 -58.78125 C 45.097656 -60.101562 42.210938 -60.765625 39.578125 -60.765625 C 35.367188 -60.765625 33.265625 -59.050781 33.265625 -55.625 C 33.265625 -54.550781 33.601562 -53.53125 34.28125 -52.5625 C 34.957031 -51.601562 36.046875 -50.609375 37.546875 -49.578125 C 39.046875 -48.546875 40.503906 -47.632812 41.921875 -46.84375 C 43.347656 -46.0625 45.3125 -45.007812 47.8125 -43.6875 C 50.3125 -42.375 52.414062 -41.21875 54.125 -40.21875 C 59.613281 -37.082031 63.460938 -34.085938 65.671875 -31.234375 C 67.890625 -28.378906 69 -25.097656 69 -21.390625 C 69 -6.628906 59.046875 0.75 39.140625 0.75 C 35.222656 0.75 31.425781 0.359375 27.75 -0.421875 C 24.082031 -1.210938 20.875 -2.25 18.125 -3.53125 C 15.382812 -4.8125 12.960938 -6.234375 10.859375 -7.796875 C 8.753906 -9.367188 7.164062 -10.972656 6.09375 -12.609375 C 5.019531 -14.253906 4.484375 -15.789062 4.484375 -17.21875 C 4.484375 -18.789062 5 -20.128906 6.03125 -21.234375 C 7.070312 -22.335938 8.59375 -22.890625 10.59375 -22.890625 C 12.082031 -22.890625 15.679688 -21.941406 21.390625 -20.046875 C 27.097656 -18.160156 31.695312 -17.21875 35.1875 -17.21875 C 38.394531 -17.21875 40 -18.320312 40 -20.53125 C 40 -21.175781 39.875 -21.765625 39.625 -22.296875 C 39.375 -22.835938 38.945312 -23.375 38.34375 -23.90625 C 37.738281 -24.4375 37.0625 -24.929688 36.3125 -25.390625 C 35.5625 -25.859375 34.523438 -26.445312 33.203125 -27.15625 C 31.890625 -27.875 30.570312 -28.585938 29.25 -29.296875 C 27.9375 -30.015625 26.207031 -30.941406 24.0625 -32.078125 C 21.925781 -33.222656 19.859375 -34.367188 17.859375 -35.515625 C 15.222656 -37.015625 12.957031 -38.867188 11.0625 -41.078125 C 9.175781 -43.285156 7.804688 -45.476562 6.953125 -47.65625 C 6.097656 -49.832031 5.671875 -51.847656 5.671875 -53.703125 C 5.671875 -59.691406 8.34375 -64.570312 13.6875 -68.34375 C 19.039062 -72.125 26.632812 -74.015625 36.46875 -74.015625 Z M 36.46875 -74.015625 "/></g></g></g></svg>