<?xml version="1.0" standalone="no"?>
<!DOCTYPE svg PUBLIC "-//W3C//DTD SVG 20010904//EN"
 "http://www.w3.org/TR/2001/REC-SVG-20010904/DTD/svg10.dtd">
<svg version="1.0" xmlns="http://www.w3.org/2000/svg"
 width="500.000000pt" height="500.000000pt" viewBox="0 0 500.000000 500.000000"
 preserveAspectRatio="xMidYMid meet">

<g transform="translate(0.000000,500.000000) scale(0.100000,-0.100000)"
fill="#000000" stroke="none">
<path d="M2177 3203 c-4 -3 -7 -88 -7 -187 l0 -181 -115 -75 -115 -75 0 -462
0 -463 -135 0 c-86 0 -135 -4 -135 -10 0 -7 51 -10 148 -8 l147 3 3 462 2 462
96 65 c53 37 98 66 100 66 2 0 5 -237 6 -527 l3 -528 53 -3 52 -3 0 580 c0
415 -3 581 -11 581 -6 0 -24 -9 -40 -21 l-29 -20 0 155 c0 86 2 156 5 156 3 0
106 -51 230 -112 l225 -113 0 -287 0 -288 -24 0 c-59 0 -56 15 -56 -321 l0
-309 55 0 55 0 0 305 c0 237 3 305 13 305 6 1 82 9 167 19 85 11 158 17 163
14 4 -2 7 -148 7 -324 l0 -319 145 0 c186 0 196 18 13 22 l-133 3 -3 327 -2
326 -38 -5 c-20 -2 -103 -12 -184 -22 l-148 -17 -2 295 -3 296 -245 122 c-135
67 -248 122 -251 122 -3 1 -9 -2 -12 -6z m78 -735 c3 -211 5 -455 3 -543 l-3
-160 -27 -3 -28 -3 0 532 c0 495 1 533 18 545 9 7 20 14 23 14 4 0 10 -172 14
-382z m405 -418 l0 -290 -25 0 -25 0 0 290 0 290 25 0 25 0 0 -290z"/>
</g>
</svg>
