<?xml version="1.0" standalone="no"?>
<!DOCTYPE svg PUBLIC "-//W3C//DTD SVG 20010904//EN"
 "http://www.w3.org/TR/2001/REC-SVG-20010904/DTD/svg10.dtd">
<svg version="1.0" xmlns="http://www.w3.org/2000/svg"
 width="500.000000pt" height="500.000000pt" viewBox="0 0 500.000000 500.000000"
 preserveAspectRatio="xMidYMid meet">

<g transform="translate(0.000000,500.000000) scale(0.100000,-0.100000)"
fill="#000000" stroke="none">
<path d="M2177 3983 c-4 -3 -7 -86 -7 -184 l0 -178 -115 -78 -114 -78 -1 -462
0 -463 -135 0 c-86 0 -135 -4 -135 -10 0 -7 51 -10 148 -8 l147 3 3 462 2 462
96 65 c53 37 98 66 100 66 2 0 5 -237 6 -527 l3 -528 53 -3 52 -3 0 580 c0
415 -3 581 -11 581 -6 0 -24 -9 -40 -21 l-29 -20 0 155 c0 86 2 156 5 156 3 0
106 -51 230 -112 l225 -113 0 -287 0 -288 -24 0 c-59 0 -56 15 -56 -321 l0
-309 55 0 55 0 0 305 c0 237 3 305 13 305 6 1 82 9 167 19 85 11 158 17 163
14 4 -2 7 -148 7 -324 l0 -319 145 0 c186 0 196 18 13 22 l-133 3 -3 328 c-1
180 -3 327 -5 327 -1 0 -76 -9 -167 -20 -91 -11 -173 -20 -182 -20 -16 0 -18
23 -20 293 l-3 292 -245 122 c-135 67 -248 122 -251 122 -3 1 -9 -2 -12 -6z
m78 -735 c3 -211 5 -455 3 -543 l-3 -160 -27 -3 -28 -3 0 532 c0 495 1 533 18
545 9 7 20 14 23 14 4 0 10 -172 14 -382z m405 -413 l0 -295 -25 0 -25 0 0
289 0 290 23 4 c12 2 23 5 25 6 1 0 2 -132 2 -294z"/>
<path d="M680 1795 l0 -745 129 0 c76 0 132 4 136 10 4 6 -38 10 -119 10
l-126 0 0 725 0 725 125 0 c77 0 125 4 125 10 0 6 -52 10 -135 10 l-135 0 0
-745z"/>
<path d="M4050 2530 c0 -6 48 -10 125 -10 l125 0 0 -725 0 -725 -126 0 c-81 0
-123 -4 -119 -10 4 -6 60 -10 136 -10 l129 0 0 745 0 745 -135 0 c-83 0 -135
-4 -135 -10z"/>
<path d="M1951 1998 c0 -233 6 -268 52 -302 23 -17 42 -21 95 -20 37 1 79 6
95 12 l27 12 0 255 0 255 -30 0 -30 0 0 -230 c0 -216 -1 -230 -19 -240 -33
-17 -86 -12 -107 11 -17 19 -19 41 -22 240 l-4 219 -29 0 -29 0 1 -212z"/>
<path d="M2397 2203 c-4 -3 -7 -123 -7 -265 l0 -258 65 0 c40 0 78 6 95 15 41
21 68 81 81 176 21 153 -10 296 -71 326 -26 13 -152 18 -163 6z m130 -58 c39
-28 54 -161 32 -295 -13 -83 -30 -110 -69 -110 l-30 0 0 210 0 210 23 0 c12 0
32 -7 44 -15z"/>
<path d="M2800 1946 l0 -266 68 0 c111 0 160 43 169 149 7 73 -8 115 -46 131
l-28 11 28 29 c26 25 29 36 29 89 0 49 -4 65 -24 88 -23 26 -31 28 -110 32
l-86 3 0 -266z m136 200 c14 -11 19 -26 19 -64 0 -60 -17 -82 -61 -82 l-34 0
0 80 0 80 28 0 c16 0 37 -6 48 -14z m18 -228 c33 -47 10 -158 -38 -179 -49
-23 -56 -9 -56 101 l0 100 39 0 c30 0 44 -6 55 -22z"/>
<path d="M1361 1404 c-32 -41 -25 -121 13 -146 17 -12 61 -9 74 4 10 10 15 10
22 -2 7 -11 10 -1 10 33 0 47 0 47 -32 46 -31 -2 -31 -2 -5 -6 31 -5 34 -19
11 -51 -10 -14 -26 -22 -44 -22 -37 0 -60 32 -60 82 0 68 58 101 100 56 11
-12 20 -17 20 -10 0 16 -41 42 -66 42 -13 0 -32 -12 -43 -26z"/>
<path d="M1980 1408 c-12 -22 -12 -22 6 -6 10 10 15 20 12 24 -4 3 -12 -5 -18
-18z"/>
<path d="M2350 1393 c0 -29 -3 -34 -12 -25 -33 33 -88 -4 -88 -59 0 -44 65
-81 86 -48 4 8 9 7 15 -2 5 -9 9 23 9 79 0 50 -2 92 -5 92 -3 0 -5 -17 -5 -37z
m-10 -42 c25 -48 3 -96 -42 -89 -52 7 -46 108 6 108 15 0 30 -8 36 -19z"/>
<path d="M1791 1398 c0 -10 -7 -18 -13 -18 -10 0 -10 -2 -1 -8 6 -4 13 -32 15
-62 2 -40 7 -55 18 -56 9 0 10 1 3 3 -8 3 -13 24 -13 58 0 43 4 54 18 58 15 4
15 5 0 6 -9 0 -19 9 -21 19 -4 16 -5 16 -6 0z"/>
<path d="M3352 1384 c-7 -8 -8 -14 -2 -14 5 0 10 -20 10 -44 0 -56 8 -76 29
-76 14 1 14 2 -1 11 -13 7 -18 23 -18 59 0 41 3 50 18 51 13 0 14 2 2 6 -8 3
-17 9 -20 13 -3 4 -11 2 -18 -6z"/>
<path d="M1536 1364 c-19 -18 -21 -85 -4 -102 18 -18 64 -15 79 6 11 14 11 15
-1 5 -28 -25 -80 -9 -80 24 0 9 15 13 45 13 38 0 45 3 45 19 0 25 -26 51 -50
51 -10 0 -26 -7 -34 -16z m62 -6 c24 -24 13 -38 -28 -38 -26 0 -40 5 -40 13 0
18 21 37 40 37 9 0 21 -5 28 -12z"/>
<path d="M1662 1363 c-14 -27 -5 -41 34 -53 24 -8 34 -17 32 -28 -4 -22 -44
-28 -66 -10 -15 12 -16 11 -3 -5 21 -27 75 -19 79 11 3 17 -4 26 -30 36 -41
18 -48 24 -41 42 6 17 44 18 63 2 12 -11 12 -10 1 5 -7 9 -24 17 -37 17 -13 0
-27 -8 -32 -17z"/>
<path d="M1873 1315 c0 -38 2 -53 4 -32 2 20 2 52 0 70 -2 17 -4 1 -4 -38z"/>
<path d="M1937 1362 c-21 -23 -22 -76 -1 -96 22 -23 60 -20 78 6 45 64 -27
146 -77 90z m75 -17 c24 -53 -26 -109 -68 -75 -17 15 -19 71 -2 88 21 21 57
14 70 -13z"/>
<path d="M2078 1373 c-15 -4 -18 -15 -17 -66 l2 -62 6 52 c7 60 19 76 52 71
21 -3 25 -10 30 -63 l6 -60 1 56 c3 73 -15 89 -80 72z"/>
<path d="M2417 1362 c-21 -23 -22 -76 -1 -96 21 -21 58 -20 75 2 11 14 11 15
-1 5 -28 -25 -80 -9 -80 24 0 9 15 13 45 13 40 0 45 2 45 23 0 46 -52 64 -83
29z m61 -4 c24 -24 13 -38 -28 -38 -26 0 -40 5 -40 13 0 18 21 37 40 37 9 0
21 -5 28 -12z"/>
<path d="M2601 1295 c1 -58 4 -78 8 -55 4 23 9 31 14 23 23 -36 87 3 87 52 0
47 -65 88 -86 54 -4 -8 -9 -7 -15 2 -5 9 -8 -22 -8 -76z m91 50 c24 -53 -26
-109 -68 -75 -17 15 -19 71 -2 88 21 21 57 14 70 -13z"/>
<path d="M2758 1373 c-15 -4 -18 -15 -16 -66 l1 -62 6 55 c5 45 10 57 31 67
24 12 13 15 -22 6z"/>
<path d="M2836 1358 c-44 -63 26 -145 78 -92 9 8 16 30 16 48 0 59 -63 89 -94
44z m72 0 c17 -17 15 -73 -2 -88 -42 -34 -92 22 -68 75 13 27 49 34 70 13z"/>
<path d="M2951 1377 c-1 -4 10 -35 23 -68 27 -66 26 -86 -7 -92 -21 -4 -21 -4
1 -6 17 -1 27 7 38 34 16 39 18 57 4 35 -9 -13 -11 -12 -16 5 -7 28 -42 102
-43 92z"/>
<path d="M3097 1362 c-21 -23 -22 -76 -1 -96 21 -21 58 -20 75 2 11 14 11 15
-1 5 -28 -25 -80 -9 -80 24 0 9 15 13 45 13 40 0 45 2 45 23 0 46 -52 64 -83
29z m61 -4 c24 -24 13 -38 -28 -38 -26 0 -40 5 -40 13 0 18 21 37 40 37 9 0
21 -5 28 -12z"/>
<path d="M3235 1366 c-23 -16 -26 -76 -5 -101 16 -19 72 -17 76 3 1 7 0 8 -3
2 -2 -5 -18 -10 -34 -10 -23 0 -32 6 -40 27 -19 51 22 100 62 74 11 -6 19 -7
19 -2 0 22 -48 27 -75 7z"/>
<path d="M3446 1358 c-44 -63 26 -145 78 -92 9 8 16 30 16 48 0 59 -63 89 -94
44z m72 0 c17 -17 15 -73 -2 -88 -42 -34 -92 22 -68 75 13 27 49 34 70 13z"/>
<path d="M3581 1366 c-19 -23 -7 -42 34 -56 25 -8 35 -17 33 -28 -4 -22 -44
-28 -65 -10 -14 11 -15 11 -11 -2 6 -19 55 -25 74 -9 24 20 15 40 -26 56 -41
17 -52 39 -24 50 9 3 26 1 36 -6 16 -10 19 -10 16 1 -7 19 -53 22 -67 4z"/>
<path d="M3031 1339 c-6 -18 -9 -34 -7 -36 2 -2 9 10 15 28 6 18 9 34 7 36 -2
2 -9 -10 -15 -28z"/>
</g>
</svg>
