<svg xmlns="http://www.w3.org/2000/svg" xmlns:xlink="http://www.w3.org/1999/xlink" width="1080" zoomAndPan="magnify" viewBox="0 0 810 809.999993" height="1080" preserveAspectRatio="xMidYMid meet" version="1.0"><path fill="#2563EB" d="M 202.5 0 C 314.335938 0 405 90.664062 405 202.5 L 405 0 L 607.5 0 C 719.335938 0 810 90.664062 810 202.5 C 810 314.335938 719.335938 405 607.5 405 C 719.335938 405 810 495.664062 810 607.5 C 810 663.03125 787.644531 713.34375 751.445312 749.925781 L 750.691406 750.691406 L 750.015625 751.359375 C 713.425781 787.609375 663.078125 810 607.5 810 C 552.300781 810 502.257812 787.914062 465.730469 752.09375 C 465.257812 751.628906 464.78125 751.160156 464.308594 750.691406 C 463.867188 750.246094 463.425781 749.800781 462.984375 749.351562 C 427.121094 712.816406 405 662.742188 405 607.5 C 405 719.335938 314.335938 810 202.5 810 C 90.664062 810 0 719.335938 0 607.5 L 0 405 L 202.5 405 C 90.664062 405 0 314.335938 0 202.5 C 0 90.664062 90.664062 0 202.5 0 Z M 364.5 202.5 C 364.5 291.96875 291.96875 364.5 202.5 364.5 L 202.5 40.5 C 291.96875 40.5 364.5 113.03125 364.5 202.5 Z M 769.5 607.5 C 769.5 518.03125 696.96875 445.5 607.5 445.5 C 518.03125 445.5 445.5 518.03125 445.5 607.5 Z M 40.5 445.5 L 40.5 607.5 C 40.5 696.96875 113.03125 769.5 202.5 769.5 C 291.96875 769.5 364.5 696.96875 364.5 607.5 L 364.5 445.5 Z M 445.5 364.5 L 445.5 40.5 L 607.5 40.5 C 696.96875 40.5 769.5 113.03125 769.5 202.5 C 769.5 291.96875 696.96875 364.5 607.5 364.5 Z M 445.5 364.5 " fill-opacity="1" fill-rule="evenodd"/></svg>